<svg height="512" viewBox="0 0 512 512" width="512" xmlns="http://www.w3.org/2000/svg"><g id="Flat"><path d="m480 314.46a71.939 71.939 0 0 1 -51.28 68.92l-54.41 16.33-54.31 16.29-10.34-34.48 81.68-24.51 27.03-8.11a35.958 35.958 0 0 0 -18.42-69.48l-15.85 3.66-8.1-35.08 15.86-3.66a71.852 71.852 0 0 1 88.14 70.12z" fill="#e3e4e2"/><path d="m309.66 381.52 81.68-24.51c-1.97 4.8-3.88 9.33-5.68 13.6-4.27 10.12-7.95 18.86-10.48 26.45-.3.89-.59 1.77-.87 2.65l-54.31 16.29z" fill="#c9c9c8"/><path d="m421.6 243.74c-1.4 12.63-3.36 24.49-5.68 35.62a35.735 35.735 0 0 0 -15.97.06l-15.85 3.66-8.1-35.08 15.86-3.66a71.728 71.728 0 0 1 29.74-.6z" fill="#c9c9c8"/><rect fill="#e9ae48" height="32" rx="16" width="384" x="64" y="456"/><path d="m344 456s3.6-26.812 16-64 48-94.071 48-192h-304c0 97.929 35.6 154.812 48 192s16 64 16 64z" fill="#e3e4e2"/><g fill="#e9ae48"><circle cx="256" cy="328" r="48"/><path d="m192 84a28.032 28.032 0 0 0 28 28h160a12 12 0 0 1 0 24h-224a28.032 28.032 0 0 0 -28 28v12h16v-12a12.013 12.013 0 0 1 12-12h134.707a27.838 27.838 0 0 0 -2.707 12v12h16v-12a12.013 12.013 0 0 1 12-12h64a28 28 0 0 0 0-56h-160a12 12 0 0 1 0-24h212v-16h-212a28.032 28.032 0 0 0 -28 28z"/><path d="m448 56h16v16h-16z"/></g></g></svg>